<svg width="108" height="67" viewBox="0 0 108 67" fill="none" xmlns="http://www.w3.org/2000/svg">
<path d="M62.9215 0.5C61.4175 2.98725 57.4224 7.49242 54.0853 7.91479C50.7482 8.33715 47.9281 9.18191 45.672 7.0701C43.4159 4.91135 44.4029 2.23636 39.4208 3.64424C34.4856 5.05211 31.3365 4.62974 30.2555 4.62974C29.1745 4.62974 25.3204 6.03761 24.0044 6.55383C24.0044 6.55383 22.1243 8.9003 20.1972 9.55731C18.2702 10.2143 14.8861 11.1529 14.6041 11.716C14.3221 12.2792 13.3351 13.7809 12.9591 15.9397C12.5831 18.0984 11.831 19.7409 10.609 21.1019C9.38696 22.4628 4.59279 25.6071 2.94774 26.0295C1.30269 26.4518 0.64469 28.0475 0.503685 28.8922C0.362681 29.7369 4.3108 32.6934 4.96882 33.679C5.62684 34.6645 7.03684 36.1662 7.97687 35.4623C8.9169 34.7584 9.76295 34.6175 10.938 35.3215C12.066 36.0254 13.382 38.982 14.181 41.4692C14.9801 43.9565 18.2702 45.1766 21.7013 44.1911C25.1324 43.2056 36.6947 39.2636 39.4208 38.7473C42.1469 38.2311 45.813 38.6534 48.0221 37.2925C50.2311 35.9315 50.9832 34.1952 53.1922 34.0544C55.4013 33.9136 60.1015 37.1987 63.2506 38.7943C66.3997 40.3899 69.7837 41.4223 70.3478 39.592C70.9118 37.7149 72.5099 35.2276 74.061 37.0109C75.659 38.7942 74.7659 41.3284 76.364 42.3609C77.962 43.4402 82.9442 38.5126 85.3413 36.3539C87.6914 34.1952 90.2764 34.7583 91.4515 31.6141C92.5795 28.4698 95.6816 26.311 96.3866 26.0295C97.0917 25.7479 94.6476 20.9612 97.6556 20.4449C100.664 19.9287 103.625 20.3041 105.834 19.3186C108.043 18.3331 107.855 14.8134 105.834 13.3586C103.813 11.9038 98.2196 8.90029 97.2326 8.431C96.2455 7.96171 94.4125 8.05561 92.7674 6.83545C91.1224 5.61529 89.6654 4.01968 86.4693 3.59732C83.2732 3.17496 80.5941 3.36266 78.197 2.9403C75.7999 2.51794 73.6849 1.72015 72.0399 1.4855C70.3948 1.25086 64.4257 1.11005 64.4257 1.11005L62.9215 0.5Z" fill="#0E3597" stroke="#02247B" stroke-miterlimit="10" stroke-linecap="round" stroke-linejoin="round"/>
<path d="M37.9636 47.429C37.9636 47.429 39.7027 45.7864 40.6897 46.4435C41.6767 47.1005 43.9328 50.1509 45.6249 50.8548C47.3639 51.5588 47.8339 51.5588 49.714 51.418C51.594 51.2772 53.9441 53.3421 53.0041 54.4214C52.064 55.5008 50.6539 56.721 50.9359 57.9411C51.2179 59.1613 54.7431 64.042 52.722 65.2621C50.7009 66.4823 48.5389 67.0454 47.3639 66.9047C46.1419 66.7639 42.3347 66.1069 42.1467 66.2007C41.9117 66.2946 41.4886 62.4933 41.7707 61.8363C42.0527 61.1793 41.1127 60.8507 39.4676 59.7714C37.8226 58.692 36.6006 57.1433 37.2586 56.2517C37.9166 55.407 37.9165 54.6091 37.0705 53.0135C36.2245 51.418 35.8955 50.7141 36.6005 49.7755C37.3055 48.8369 37.9636 47.429 37.9636 47.429Z" fill="#0E3597"/>
<path d="M79.8889 54.5621C79.8889 54.5621 80.0299 57.0022 78.5259 57.5184C77.0218 58.0345 76.3168 58.7384 77.6798 59.9584C79.0429 61.1785 82.7559 63.337 83.508 61.6008C84.213 59.8646 85.012 54.5152 84.025 54.2337C82.991 53.9521 79.8889 54.5621 79.8889 54.5621Z" fill="#0E3597"/>
</svg>
