<svg width="144" height="102" viewBox="0 0 144 102" fill="none" xmlns="http://www.w3.org/2000/svg">
<path d="M99.2207 0.5C99.2207 0.5 94.0505 0.500011 92.1235 0.922375C90.1964 1.34474 89.9614 4.01971 89.9614 6.08459C89.9614 8.14948 86.9533 12.7485 84.6032 13.4055C82.2532 14.0626 82.1121 9.74505 82.1121 7.82095C82.1121 5.89685 79.6211 5.4745 76.284 5.66222C72.9469 5.89686 74.5449 10.9183 72.8529 12.8424C71.1138 14.7665 68.6698 11.6692 68.3408 8.24333C68.0117 4.81749 67.1657 4.81747 64.6746 4.58282C62.1835 4.34818 61.3376 5.8499 58.6585 11.9038C55.9794 17.9107 59.5045 19.084 60.3975 23.4014C61.2435 27.7189 58.2354 28.5637 56.2144 33.4912C54.1463 38.4188 52.5482 40.0614 50.8562 43.3934C49.1171 46.7253 45.498 47.3823 43.007 46.0683C40.5159 44.8012 39.0119 43.581 37.3198 44.0034C35.5808 44.4258 36.5678 46.913 34.9697 47.9924C33.3717 49.0718 30.3636 46.7253 28.7185 44.7543C27.1205 42.8302 24.3004 41.6569 23.0314 42.1731C21.7623 42.6894 21.1043 46.1621 20.7753 49.1656C20.4463 52.1691 22.1853 57.5659 20.7753 59.0677C19.3652 60.5694 18.0962 58.5515 15.6991 56.5805C13.3491 54.6564 11.61 56.5804 11.093 57.6598C10.576 58.7392 8.27293 61.8365 6.01686 62.1651C3.76079 62.4936 3.00874 61.1795 1.17568 61.9304C-0.657372 62.6813 1.59872 65.7786 3.66678 66.7641C5.73485 67.7496 6.34587 67.4211 8.83694 70.7531C11.328 74.0851 6.67487 84.5972 5.82884 86.7559C5.82884 86.7559 9.49496 87.6946 11.187 87.5538C12.8791 87.3661 20.2113 87.1783 21.8563 87.1783C23.4544 87.1783 29.6586 87.1783 31.2566 87.0845C32.8547 86.9906 33.3717 86.052 36.7558 85.0665C40.1399 84.081 41.8789 83.5648 42.725 84.8318C43.571 86.0989 44.182 87.6945 45.2631 89.4779C46.3441 91.2612 47.8481 93.5607 49.2582 95.5787C50.7152 97.5966 53.0653 98.5821 54.4283 98.019C55.7914 97.4558 57.4364 95.6725 59.0814 93.0914C60.7265 90.5103 61.0085 89.2901 63.3116 89.2901C65.6146 89.2901 68.3407 89.6656 67.2597 91.7774C66.1787 93.9361 64.2986 94.2646 65.2387 96.8457C66.1787 99.4268 67.5887 101.351 68.4817 100.647C69.3278 99.9431 71.3489 96.7988 71.3489 95.9071C71.3489 95.0624 71.4898 92.8098 73.3699 93.0445C75.2499 93.2791 77.553 94.687 78.9631 96.3295C80.4201 97.972 81.4542 99.6146 82.6292 98.6291C83.7572 97.6435 87.8464 93.4668 87.8464 91.1204C87.8464 88.7739 87.0003 87.6945 89.5854 87.1314C92.1705 86.5682 93.8155 85.8643 95.7426 86.5683C97.6696 87.2722 103.874 91.355 105.566 92.716C107.305 94.0769 107.493 95.2032 109.561 96.5642C111.629 97.9251 114.496 98.0659 115.389 95.9071C116.235 93.7484 114.966 90.3226 117.598 89.9472C120.23 89.5717 121.452 90.2287 122.956 91.0265C124.46 91.8243 126.106 90.8857 127.61 91.4489C129.114 92.012 129.631 93.6546 131.041 93.6546C132.498 93.6546 134.331 92.2936 134.19 89.6656C134.049 87.0375 131.981 84.6441 134.19 83.1424C136.399 81.6407 138.42 82.5793 138.561 80.5144C138.702 78.4495 137.198 75.1644 136.681 72.114C136.164 69.1106 136.681 66.6702 137.762 64.7931C138.843 62.9159 141.569 62.6343 142.415 60.4756C143.261 58.3168 143.073 55.3133 140.253 55.2664C137.433 55.1726 136.822 55.7826 134.942 54.7502C133.062 53.7647 132.498 51.7937 130.618 53.1077C128.738 54.3748 130.9 55.2664 127.469 55.2664C124.037 55.2664 121.499 55.548 120.7 54.1871C119.901 52.8261 117.974 50.4796 118.256 48.6494C118.538 46.8661 120.418 44.4727 119.196 43.2056C117.974 41.9385 115.53 42.1263 115.013 41.5631C114.496 40.9999 113.415 38.8412 113.086 37.1987C112.71 35.5561 111.347 33.2097 109.091 33.2097C106.835 33.2097 102.793 33.5851 102.558 32.975C102.323 32.4119 100.96 27.3905 101.571 25.3256C102.135 23.2607 104.062 21.6181 104.062 19.6002C104.062 17.5822 104.579 15.9397 102.041 14.6726C99.5497 13.4055 97.2936 12.7485 97.2467 11.1529C97.1526 9.55732 97.1056 6.64773 97.7636 5.42757C98.4217 4.30127 99.2207 0.546929 99.2207 0.5Z" fill="#0E3597" stroke="#02247B" stroke-miterlimit="10" stroke-linecap="round" stroke-linejoin="round"/>
</svg>
