<svg width="941" height="611" viewBox="0 0 941 611" fill="none" xmlns="http://www.w3.org/2000/svg">
<path d="M25.6458 31.4733L161.997 0.5L282.556 90.1818C282.556 90.1818 286.269 101.633 288.29 104.214C290.311 106.795 320.063 143.634 322.46 146.403C324.81 149.219 334.727 160.576 336.654 163.391C338.581 166.207 343.987 172.214 347.653 174.373C351.319 176.532 358.651 177.611 360.766 178.69C362.928 179.77 362.035 182.351 360.766 183.853C359.497 185.354 349.768 192.441 346.995 196.336C344.175 200.184 340.32 207.317 336.231 212.433C332.142 217.595 326.126 222.757 324.622 224.024C323.118 225.291 322.037 226.84 322.037 226.84C322.037 226.84 321.191 247.489 323.776 253.496C326.361 259.503 327.207 260.394 327.207 262.975C327.207 265.556 326.972 266.401 323.118 268.325C319.264 270.249 314.094 271.141 314.094 275.412C314.094 279.729 316.021 285.079 317.337 285.924C318.606 286.768 321.661 288.739 322.084 289.584C322.507 290.429 323.353 294.089 324.434 295.591C325.515 297.093 333.693 307.136 334.821 309.717C335.949 312.298 338.534 316.897 339.145 317.742C339.709 318.586 343.141 325.767 345.303 327.362C347.465 328.958 349.157 330.647 349.157 331.539C349.157 332.384 346.854 334.824 345.585 335.246C344.316 335.669 333.975 339.845 332.236 340.549C330.497 341.253 327.207 343.553 327.207 343.553L325.75 335.106C325.75 335.106 320.157 328.066 317.29 325.063C314.423 322.059 313.859 320.323 311.274 318.915C308.689 317.46 307.701 317.46 304.834 316.334C301.967 315.208 299.241 314.175 298.066 314.175C296.938 314.175 293.601 315.301 293.319 317.179C293.037 319.056 290.593 318.915 290.029 318.164C289.465 317.46 289.606 309.998 284.859 309.013C280.112 308.027 278.091 306.995 278.091 306.995C278.091 306.995 275.505 302.818 274.236 301.974C272.967 301.129 271.087 301.41 270.241 300.847C269.395 300.284 268.22 295.826 266.669 295.403C265.071 294.981 261.64 292.822 260.653 291.414C259.666 289.96 253.321 283.249 251.911 281.653C250.454 280.058 247.587 277.054 247.587 275.787C247.587 274.52 244.579 272.502 244.579 270.625C244.579 268.748 245.566 265.885 245.425 265.04C245.284 264.196 239.972 263.022 238.985 262.881C237.998 262.741 235.554 260.3 235.46 257.719C235.366 255.138 235.037 253.214 230.525 248.709C226.013 244.204 217.318 237.587 217.318 237.587C217.318 237.587 215.814 237.352 212.994 237.352C210.173 237.352 196.449 235.334 193.911 235.005C191.373 234.63 187.519 234.161 186.673 234.208C185.827 234.302 183.101 234.912 182.725 233.081C182.349 231.204 183.289 227.497 182.631 225.901C181.973 224.306 176.332 219.66 176.332 219.66C176.332 219.66 167.496 219.19 166.65 218.768C165.804 218.346 162.89 214.779 160.963 212.526C159.036 210.274 154.947 202.953 152.456 201.686C149.965 200.419 147.286 200.184 146.957 202.437C146.628 204.689 146.299 209.007 145.029 209.335C143.76 209.664 141.363 209.57 139.107 207.833C136.851 206.097 132.527 205.346 130.506 206.097C128.438 206.848 125.242 208.162 125.665 209.945C126.088 211.776 129.331 213.934 130.412 214.779C131.493 215.624 133.843 218.768 134.078 220.692C134.313 222.616 136.146 226.84 137.509 228.529C138.919 230.266 141.927 233.128 141.833 234.114C141.739 235.099 142.82 237.446 139.671 237.117C136.569 236.789 133.091 236.695 132.997 234.959C132.903 233.222 131.822 228.952 131.493 228.06C131.164 227.215 122.563 220.129 122.563 220.129C122.563 220.129 118.145 219.05 116.218 219.707C114.291 220.364 110.953 222.804 110.859 224.306C110.765 225.807 111.611 228.717 110.953 230.219C110.295 231.72 106.535 236.038 105.877 236.648C105.219 237.305 107.052 238.901 107.287 239.886C107.522 240.872 104.937 241.153 103.95 241.153C102.963 241.153 100.378 240.496 98.874 241.482C97.37 242.467 93.6099 242.749 91.5418 241.904C89.4738 241.059 86.4657 239.558 84.9616 239.839C83.4576 240.168 78.2874 241.669 75.9373 243.171C73.5873 244.673 60.2389 254.997 58.9228 256.499C57.6538 258.001 55.4917 260.347 55.0687 261.661C54.6457 262.928 54.8337 275.505 55.0687 278.837C55.3037 282.169 56.4787 287.332 57.5598 290.335C58.6408 293.339 59.2988 294.512 60.8969 295.403C62.4949 296.248 64.328 296.999 64.328 296.999L56.8078 304.93C56.8078 304.93 37.4432 301.176 35.3751 300.847C33.307 300.519 18.6896 297.187 14.5065 296.764C10.3233 296.342 0.500031 294.418 0.500031 294.418C0.500031 294.418 4.16614 258.001 4.26015 257.672C4.35415 257.344 18.8306 102.759 18.8306 102.759L25.6458 31.4733Z" fill="#0E3597" stroke="#02247B" stroke-miterlimit="10" stroke-linecap="round" stroke-linejoin="round"/>
<path d="M336.654 163.438C338.582 166.254 343.987 172.261 347.653 174.42C351.319 176.578 358.651 177.658 360.766 178.737C362.928 179.817 362.035 182.398 360.766 183.899C359.497 185.401 349.768 192.487 346.995 196.383C344.175 200.231 340.321 207.364 336.231 212.479C332.142 217.642 326.126 222.804 324.622 224.071C323.118 225.338 322.037 226.887 322.037 226.887C322.037 226.887 321.191 247.535 323.776 253.542C326.361 259.549 327.207 260.441 327.207 263.022C327.207 265.603 326.972 266.448 323.118 268.372C319.264 270.296 314.094 271.188 314.094 275.458C314.094 279.729 316.021 285.126 317.337 285.971C318.606 286.815 321.661 288.786 322.084 289.631C322.507 290.476 323.353 294.136 324.434 295.638C325.515 297.14 333.693 307.183 334.821 309.764L337.077 314.269C337.077 314.269 347.418 309.717 348.593 309.435C349.721 309.154 358.087 306.619 358.839 306.619C359.638 306.619 361.142 307.042 361.33 308.497C361.565 309.951 360.531 317.319 362.082 320.229C363.633 323.185 365.278 325.673 367.816 327.315C370.354 328.958 371.342 329.756 371.389 331.633C371.483 333.51 370.166 339.141 371.765 341.722C373.363 344.304 375.713 346.885 376.982 344.585C378.251 342.286 379.332 339.141 381.353 338.625C383.374 338.109 386.1 338.531 388.027 340.127C389.954 341.723 400.811 347.589 402.221 348.293C403.679 348.997 404.807 351.155 407.11 351.155C409.413 351.155 411.105 352.751 411.434 353.596C411.763 354.44 410.729 357.772 410.729 360.025C410.729 362.277 411.293 365.75 414.019 366.924C416.745 368.05 423.654 367.205 423.654 365.328C423.654 363.451 423.231 360.025 422.056 358.57C420.928 357.115 419.565 356.271 419.941 354.957C420.317 353.689 424.077 348.246 425.769 347.119C427.414 345.993 428.119 344.914 429.153 343.928C430.187 342.943 432.02 342.286 433.195 342.755C434.37 343.224 436.674 345.289 435.451 346.838C434.229 348.386 431.785 348.293 431.738 350.874C431.691 353.455 431.973 355.707 435.076 355.614C438.178 355.52 440.998 354.581 444.241 355.097C447.484 355.567 448.988 356.224 450.539 355.05C452.09 353.877 451.902 350.17 451.62 347.166C451.338 344.163 451.009 341.347 453.547 340.972C456.085 340.596 462.054 340.737 463.229 341.066C464.404 341.394 465.673 341.3 466.707 340.455C467.788 339.658 469.246 332.9 470.75 332.524C472.254 332.149 474.463 332.665 474.698 333.932C474.933 335.152 474.322 338.86 474.181 341.253C474.04 343.6 474.792 348.199 476.014 351.249C477.236 354.3 482.688 364.718 486.26 365.609C489.832 366.454 493.78 367.017 496.506 365.516C499.185 364.014 499.326 362.606 501.865 362.09C504.45 361.574 506.048 361.761 507.223 363.169C508.398 364.577 509.573 364.671 511.312 364.577C513.051 364.483 514.32 364.906 514.414 365.844C514.508 366.83 511.923 372.743 509.902 373.165C507.834 373.587 507.317 374.244 506.8 376.075C506.283 377.905 505.813 381.565 503.04 381.659C500.219 381.753 498.621 382.739 497.963 384.006C497.305 385.273 495.801 386.493 493.451 386.258C491.101 386.024 490.866 382.926 488.281 383.255C485.696 383.583 484.944 382.082 484.709 385.085C484.474 388.089 485.461 388.746 485.132 390.904C484.803 393.063 482.547 394.987 481.795 396.067C481.043 397.146 480.62 397.803 481.137 400.384C481.654 402.965 482.218 404.561 480.902 406.203C479.586 407.846 480.244 408.456 478.74 410.521C477.236 412.586 475.309 413.102 473.899 413.618C472.489 414.134 470.797 412.773 469.716 414.604C468.635 416.434 468.305 418.593 470.75 421.784C473.194 425.022 475.309 430.466 475.544 430.935C475.779 431.357 476.296 431.357 478.035 434.502C479.774 437.599 482.03 437.599 484.803 436.238C487.623 434.83 488.563 434.314 491.712 435.159C494.814 436.003 497.963 438.397 494.391 439.758C490.819 441.166 487.623 442.01 490.396 444.263C493.216 446.516 496.318 446.844 497.587 447.36C498.856 447.876 499.937 450.786 500.83 448.627C501.676 446.469 506.33 435.956 503.839 432.624C501.348 429.293 500.736 429.621 498.668 428.635C496.6 427.65 494.344 424.553 496.177 423.802C498.01 423.051 498.762 424.318 501.018 424.036C503.275 423.708 505.531 420.611 506.095 419.531C506.659 418.452 508.351 416.528 510.701 418.452C513.051 420.376 514.367 422.441 515.777 420.939C517.187 419.437 515.448 414.04 515.777 411.037C516.106 408.034 516.764 404.608 518.033 404.045C519.302 403.528 522.122 404.702 523.72 406.626C525.318 408.55 528.326 410.943 529.971 409.864C531.569 408.784 530.629 406.297 532.321 405.875C534.061 405.452 535.565 406.626 538.009 407.94C540.5 409.207 544.166 408.597 545.858 405.265C547.597 401.933 549.195 400.337 551.216 395.363C553.284 390.435 556.292 389.543 555.399 385.273C554.553 380.955 550.981 379.782 553.66 373.775C556.339 367.768 557.232 366.267 559.676 366.454C562.12 366.642 563.013 366.689 563.342 370.115C563.671 373.541 566.163 376.685 567.855 374.714C569.594 372.79 567.949 367.721 571.286 367.534C574.623 367.299 577.114 367.768 577.114 369.692C577.114 371.616 577.208 375.934 579.605 375.277C581.955 374.62 584.963 370.021 584.963 367.956C584.963 365.891 585.198 363.216 587.125 362.794C589.052 362.371 594.222 362.371 594.222 362.371C594.222 362.371 594.88 358.57 593.423 355.567C591.966 352.563 588.817 345.946 588.112 341.535C587.407 337.077 585.668 334.636 587.971 333.228C590.274 331.773 592.154 334.214 592.859 331.21C593.564 328.207 592.154 325.063 592.154 325.063L585.574 324.359C585.574 324.359 580.404 303.287 579.417 299.439C578.43 295.591 575.093 285.126 574.952 282.967C574.811 280.808 573.495 264.758 573.495 264.758L545.67 264.618L545.811 237.258C545.811 237.258 547.409 233.551 547.691 232.096C547.973 230.641 549.43 192.957 549.43 192.957C549.43 192.957 538.667 199.855 536.787 200.419C534.907 200.982 533.214 201.404 532.039 198.823C530.911 196.242 516.67 169.445 514.837 168.6C512.957 167.756 504.779 163.297 503.087 162.594C501.348 161.89 485.743 141.241 485.743 141.241L461.067 154.146L395.641 148.139L349.298 155.883L332.753 158.698L336.654 163.438Z" fill="#0E3597" stroke="#02247B" stroke-miterlimit="10" stroke-linecap="round" stroke-linejoin="round"/>
<path d="M594.316 362.231C594.316 362.231 589.146 362.231 587.219 362.653C585.292 363.076 585.057 365.751 585.057 367.816C585.057 369.88 582.049 374.479 579.699 375.137C577.349 375.794 577.208 371.476 577.208 369.552C577.208 367.628 574.717 367.205 571.38 367.393C568.042 367.628 569.64 372.649 567.948 374.573C566.209 376.497 563.765 373.4 563.436 369.974C563.107 366.548 562.261 366.548 559.77 366.314C557.279 366.079 556.433 367.581 553.754 373.635C551.075 379.642 554.6 380.815 555.493 385.132C556.339 389.45 553.331 390.295 551.31 395.222C549.242 400.15 547.644 401.792 545.952 405.124C544.213 408.456 540.594 409.113 538.102 407.799C535.611 406.532 534.107 405.312 532.415 405.734C530.676 406.157 531.663 408.644 530.065 409.723C528.467 410.803 525.459 408.456 523.814 406.485C522.216 404.561 519.396 403.388 518.127 403.904C516.858 404.42 516.2 407.893 515.871 410.897C515.542 413.9 517.281 419.297 515.871 420.799C514.461 422.3 513.192 420.282 510.795 418.311C508.445 416.387 506.705 418.311 506.188 419.391C505.671 420.47 503.368 423.568 501.112 423.896C498.856 424.225 498.104 422.91 496.271 423.661C494.438 424.412 496.694 427.51 498.762 428.495C500.83 429.481 501.441 429.152 503.932 432.484C506.424 435.816 501.77 446.328 500.924 448.487C500.924 448.487 504.59 449.426 506.283 449.285C507.975 449.097 515.307 448.909 516.952 448.909C518.55 448.909 524.754 448.909 526.352 448.815C527.95 448.722 528.467 447.783 531.851 446.797C535.235 445.812 536.974 445.296 537.82 446.563C538.666 447.83 539.278 449.425 540.359 451.209C541.44 452.992 542.944 455.292 544.354 457.31C545.811 459.328 548.161 460.313 549.524 459.75C550.887 459.187 552.532 457.403 554.177 454.822C555.822 452.241 556.104 451.021 558.407 451.021C560.71 451.021 563.436 451.397 562.355 453.508C561.274 455.667 559.394 455.996 560.334 458.577C561.274 461.158 562.684 463.082 563.577 462.378C564.423 461.674 566.444 458.53 566.444 457.638C566.444 456.793 566.585 454.541 568.465 454.775C570.345 455.01 572.649 456.418 574.059 458.06C575.516 459.703 576.55 461.346 577.725 460.36C578.853 459.375 582.942 455.198 582.942 452.851C582.942 450.505 582.096 449.425 584.681 448.862C587.266 448.299 588.911 447.595 590.838 448.299C592.765 449.003 598.969 453.086 600.661 454.447C602.4 455.808 602.588 456.934 604.656 458.295C606.725 459.656 609.592 459.797 610.485 457.638C611.331 455.479 610.062 452.054 612.694 451.678C615.326 451.303 616.548 451.96 618.052 452.757C619.556 453.555 621.201 452.617 622.705 453.18C624.209 453.743 624.726 455.386 626.136 455.386C627.593 455.386 629.426 454.025 629.285 451.397C629.144 448.769 627.076 446.375 629.285 444.873C631.494 443.372 633.515 444.31 633.656 442.245C633.797 440.18 632.293 436.895 631.776 433.845C631.259 430.842 631.776 428.401 632.857 426.524C633.938 424.647 636.664 424.365 637.511 422.207C638.357 420.048 638.169 417.044 635.348 416.997C632.528 416.904 631.917 417.514 630.037 416.481C628.157 415.496 627.593 413.525 625.713 414.839C623.833 416.106 625.995 416.997 622.564 416.997C619.133 416.997 616.595 417.279 615.796 415.918C614.997 414.557 613.07 412.211 613.352 410.38C613.634 408.597 615.514 406.204 614.292 404.937C613.07 403.669 610.626 403.857 610.109 403.294C609.592 402.731 608.511 400.572 608.182 398.93C607.806 397.287 606.443 394.941 604.186 394.941C601.93 394.941 597.888 395.316 597.653 394.706C597.418 394.143 596.055 389.121 596.666 387.057C597.23 384.992 599.157 383.349 599.157 381.331C599.157 379.313 599.674 377.671 597.136 376.404C594.645 375.136 592.389 374.479 592.342 372.884C592.248 371.288 592.201 368.379 592.859 367.159C593.517 366.032 594.316 362.278 594.316 362.231Z" fill="#0E3597" stroke="#02247B" stroke-miterlimit="10" stroke-linecap="round" stroke-linejoin="round"/>
<path d="M631.777 433.986C631.26 430.982 631.777 428.542 632.858 426.665C633.939 424.788 636.665 424.506 637.511 422.347C638.357 420.189 638.169 417.185 635.349 417.138C632.529 417.044 631.918 417.654 630.037 416.622C628.157 415.636 627.593 413.665 625.713 414.979C623.833 416.246 625.995 417.138 622.564 417.138C619.133 417.138 616.595 417.42 615.796 416.059C614.997 414.698 613.07 412.351 613.352 410.521C613.634 408.738 615.514 406.344 614.292 405.077C613.07 403.81 610.626 403.998 610.109 403.435C609.592 402.872 608.511 400.713 608.182 399.07C607.806 397.428 606.443 395.081 604.187 395.081C601.931 395.081 597.889 395.457 597.653 394.847C597.418 394.284 596.055 389.262 596.666 387.197C597.23 385.132 599.158 383.49 599.158 381.472C599.158 379.454 599.675 377.811 597.136 376.544C594.645 375.277 592.389 374.62 592.342 373.025C592.248 371.429 592.201 368.519 592.859 367.299C593.517 366.079 594.457 362.278 594.457 362.278C594.457 362.278 594.598 359.18 594.269 357.866C593.94 356.552 592.389 353.267 591.355 350.733C590.274 348.199 589.569 346.322 589.569 346.322C589.569 346.322 588.629 343.459 588.535 342.896C588.394 342.38 588.018 340.268 587.83 339.517C587.642 338.766 586.89 336.232 586.937 335.434C586.984 334.683 587.266 333.369 588.253 332.994C589.24 332.665 590.18 332.619 590.744 332.665C591.308 332.712 592.53 332.853 592.812 331.492C593.094 330.131 593.235 328.676 592.953 327.55C592.718 326.424 592.201 324.922 592.201 324.922C592.201 324.922 598.735 324.406 601.837 324.734C604.939 325.063 608.84 325.344 610.532 324.828C612.224 324.312 622.423 323.327 625.901 323.233C629.333 323.139 635.302 323.89 637.605 322.576C639.908 321.309 641.036 320.792 643.057 320.98C645.078 321.215 649.449 321.215 650.248 320.605C651.047 320.041 654.102 321.966 654.243 322.247C654.384 322.529 656.029 324.734 656.123 326.236C656.217 327.738 655.841 330.882 657.909 330.225C659.977 329.568 661.34 328.16 662.28 328.583C663.221 329.005 664.161 332.431 664.161 333.322C664.161 334.167 665.383 336.889 665.101 338.062C664.819 339.189 661.951 342.661 660.776 343.225C659.648 343.788 657.768 346.181 660.4 348.434C663.033 350.733 669.284 352.939 670.882 354.3C672.48 355.661 676.757 358.148 676.757 358.148C676.757 358.148 671.07 364.53 669.096 366.267C667.075 368.003 665.994 371.007 666.276 373.212C666.558 375.418 665.007 378.281 664.631 378.797C664.255 379.313 659.554 387.103 662.61 388.699C665.712 390.295 674.736 390.482 676.757 389.215C678.778 387.948 679.389 386.071 682.35 386.071C685.311 386.071 688.883 387.197 689.118 387.338C689.353 387.479 688.554 390.482 687.849 392.406C687.144 394.33 686.862 397.146 687.708 398.366C688.554 399.587 692.596 399.962 693.301 400.948C694.006 401.933 695.511 403.669 694.1 404.514C692.643 405.359 689.212 406.251 689.212 407.658C689.212 409.113 690.34 411.507 691.703 411.507C693.066 411.507 696.592 411.084 697.297 408.785C698.002 406.485 701.01 405.218 701.48 405.218C701.95 405.218 705.945 408.034 704.3 408.785C702.655 409.536 702.138 411.929 702.279 412.586C702.42 413.243 702.044 416.434 700.211 415.449C698.331 414.463 697.626 413.431 696.921 413.806C696.216 414.182 694.195 415.261 694.759 417.232C695.323 419.25 696.216 426.383 694.994 429.058C693.771 431.686 692.784 435.863 689.4 436.567C686.016 437.271 677.18 436.802 671.587 435.628C665.994 434.502 652.692 432.625 650.295 432.766C647.851 432.906 644.138 433.47 642.399 434.22C640.66 434.924 636.853 437.646 635.725 437.928C634.597 438.209 632.952 438.35 632.952 438.35C632.952 438.35 632.388 436.332 632.247 435.957C632.153 435.769 631.777 433.986 631.777 433.986Z" fill="#0E3597" stroke="#02247B" stroke-miterlimit="10" stroke-linecap="round" stroke-linejoin="round"/>
<path d="M676.804 358.336C676.804 358.336 671.117 364.718 669.143 366.455C667.122 368.191 666.041 371.194 666.323 373.4C666.605 375.606 665.054 378.468 664.678 378.985C664.302 379.501 659.601 387.291 662.656 388.887C665.759 390.482 674.783 390.67 676.804 389.403C678.825 388.136 679.436 386.259 682.397 386.259C685.358 386.259 688.93 387.385 689.165 387.526C689.4 387.667 688.601 390.67 687.896 392.594C687.191 394.518 686.909 397.334 687.755 398.554C688.601 399.774 692.643 400.15 693.348 401.135C694.053 402.121 695.557 403.857 694.147 404.702C692.69 405.547 689.259 406.438 689.259 407.846C689.259 409.254 690.387 411.694 691.75 411.694C693.113 411.694 696.639 411.272 697.344 408.972C698.049 406.673 701.057 405.406 701.527 405.406C701.95 405.406 705.616 407.471 704.441 408.879C704.441 408.879 705.193 410.24 705.71 410.709C706.18 411.178 707.543 412.633 708.577 412.586C709.658 412.492 710.692 411.882 710.692 410.756C710.692 409.63 709.376 407.987 708.53 407.142C707.684 406.298 705.24 404.186 705.193 402.684C705.099 401.135 705.71 399.727 706.697 399.211C707.684 398.695 710.128 398.179 711.162 398.132C712.196 398.085 715.768 397.099 715.956 395.645C716.097 394.19 715.204 391.656 712.572 391.702C709.94 391.749 708.201 394.706 705.146 394.706C702.091 394.706 694.805 395.363 693.63 393.955C692.455 392.547 691.703 389.825 693.583 389.497C695.463 389.168 702.655 389.731 705.052 388.417C707.402 387.15 708.06 385.977 712.008 386.212C715.956 386.446 719.34 386.822 719.34 386.822C719.34 386.822 718.729 382.504 719.34 380.064C719.951 377.577 720.891 370.537 720.891 368.285C720.891 366.032 718.776 361.902 716.708 359.462C714.593 357.022 711.914 354.3 708.53 351.203C705.146 348.105 704.911 349.513 703.078 346.51C701.292 343.506 699.647 342.333 697.626 340.503C695.604 338.672 695.134 334.777 695.275 334.12C695.416 333.463 689.447 337.265 689.024 339.142C688.601 341.019 689.823 344.867 689.729 346.228C689.635 347.589 687.379 348.387 688.789 349.654C690.246 350.921 693.818 352.517 694.006 353.643C694.241 354.769 695.275 358.946 693.301 359.368C691.28 359.791 683.76 360.588 681.88 359.884C680 359.181 676.804 358.336 676.804 358.336Z" fill="#0E3597" stroke="#02247B" stroke-miterlimit="10" stroke-linecap="round" stroke-linejoin="round"/>
<path d="M695.181 334.027C695.04 334.684 695.557 338.532 697.532 340.409C699.553 342.286 701.198 343.412 702.984 346.416C704.77 349.419 705.052 348.011 708.436 351.109C711.82 354.206 714.499 356.975 716.614 359.368C718.729 361.762 720.797 365.938 720.797 368.191C720.797 370.444 719.81 377.483 719.246 379.97C718.635 382.457 719.246 386.728 719.246 386.728C719.246 386.728 722.019 385.696 724.087 386.728C726.155 387.76 730.057 388.183 730.903 387.526C731.749 386.869 732.407 385.179 731.89 384.898C731.373 384.616 727.095 384.804 726.86 383.021C726.625 381.237 726.954 380.299 728.646 380.299C730.386 380.299 733.159 380.393 732.595 378.562C732.031 376.779 730.245 374.62 730.292 372.602C730.386 370.584 729.775 367.018 728.411 365.516C727.048 364.014 723.1 362.888 725.826 360.917C728.553 358.946 730.856 358.664 730.903 356.881C730.95 355.098 729.304 354.018 730.057 349.138C730.762 344.257 732.266 342.333 734.428 342.286C736.59 342.239 741.102 344.539 742.465 346.557C743.828 348.575 745.285 351.156 747.259 351.625C749.233 352.094 749.327 353.784 751.254 353.831C753.181 353.924 754.779 350.17 756.283 349.091C757.787 348.011 760.278 344.773 765.12 343.741C769.961 342.661 784.484 333.323 785.659 331.258C786.834 329.193 785.988 323.749 786.834 322.763C787.68 321.778 789.654 323.092 791.675 323.608C793.744 324.124 795.671 319.76 795.013 317.695C794.355 315.63 792.851 316.428 792.193 313.706C791.535 311.031 792.286 309.389 791.44 308.544C790.594 307.699 787.257 308.544 787.022 305.212C786.787 301.88 788.009 300.144 788.009 297.797C788.009 295.451 788.103 291.649 784.672 291.039C781.241 290.429 776.4 291.556 774.661 288.974C772.922 286.393 772.405 283.812 773.909 282.733C775.413 281.653 785.659 276.397 788.761 271.751C791.863 267.152 791.863 267.152 791.863 267.152C791.863 267.152 793.086 264.994 795.107 262.084C797.128 259.174 798.632 257.907 801.311 257.766C803.99 257.673 806.81 258.283 806.904 255.936C806.998 253.59 803.473 252.839 806.904 250.117C810.335 247.442 816.257 244.767 817.244 244.439C818.231 244.11 822.931 243.265 824.576 240.778C826.175 238.291 827.397 235.85 825.329 234.443C823.26 233.035 819.171 230.36 817.056 229.609C814.941 228.858 813.813 229.844 813.625 231.533C813.39 233.269 814.142 234.114 810.194 234.865C806.199 235.616 799.76 235.85 799.102 237.681C798.444 239.511 798.867 243.265 798.021 245.94C797.175 248.615 797.504 250.258 793.508 249.695C789.513 249.178 787.586 245.612 785.424 246.785C783.262 247.958 779.267 249.601 778.75 251.947C778.233 254.294 775.319 260.207 773.58 261.427C771.841 262.6 768.833 266.589 767.752 268.607C766.671 270.672 757.975 275.177 752.993 276.35C748.011 277.524 737.389 284.61 735.133 286.863C732.877 289.115 732.219 291.039 731.279 293.292C730.292 295.545 726.108 295.451 725.591 295.451C725.074 295.451 723.993 297.187 721.925 298.126C719.857 299.111 719.246 297.891 716.849 299.393C714.499 300.894 711.914 304.414 713.183 308.45C714.452 312.486 714.922 313.143 713.418 315.161C711.914 317.226 707.59 319.009 706.744 319.666C705.898 320.323 702.42 322.247 701.151 323.749C699.882 325.251 698.19 326.752 697.767 327.832C697.485 329.146 695.181 334.027 695.181 334.027Z" fill="#0E3597" stroke="#02247B" stroke-miterlimit="10" stroke-linecap="round" stroke-linejoin="round"/>
<path d="M791.816 323.702C793.885 324.219 795.811 319.854 795.153 317.789C794.495 315.724 792.991 316.522 792.333 313.8C791.675 311.125 792.427 309.483 791.581 308.638C790.735 307.793 787.398 308.638 787.163 305.306C786.928 301.974 788.15 300.238 788.15 297.891C788.15 297.891 793.743 293.668 796 292.4C798.256 291.133 804.272 289.96 804.46 289.96C804.601 289.96 804.883 291.18 805.118 293.715C805.353 296.249 806.669 297.469 807.045 298.079C807.421 298.689 808.079 300.942 807.75 303.006C807.421 305.118 806.34 308.591 809.019 308.638C811.698 308.685 818.701 308.122 819.923 308.403C821.145 308.685 825.046 312.345 826.315 313.002C827.584 313.706 831.11 315.349 831.674 313.425C832.285 311.501 829.7 307.746 831.674 308.075C833.648 308.403 835.058 310.985 836.233 311.782C837.408 312.58 839.1 311.735 839.711 311.548C840.369 311.407 840.698 312.627 842.155 313.659C843.612 314.692 844.411 313.566 844.317 312.533C844.223 311.501 842.813 311.782 842.484 306.855C842.155 301.927 841.215 298.032 842.86 297.75C844.505 297.469 844.834 298.783 847.419 298.971C850.004 299.205 852.166 299.252 852.401 297.938C852.683 296.671 851.696 293.761 852.401 292.26C853.106 290.758 854.563 290.711 853.576 288.458C852.589 286.206 851.273 286.487 850.897 283.531C850.521 280.574 850.897 278.791 852.354 278.791C853.811 278.791 856.349 280.621 856.349 282.029C856.349 283.437 856.302 286.91 858.605 287.144C860.908 287.379 863.87 289.819 864.387 290.805C864.857 291.79 865.844 293.339 866.314 293.761C866.784 294.184 867.301 297.14 867.16 298.173C867.066 299.205 866.643 302.725 868.006 303.617C869.416 304.461 874.774 307.746 876.325 305.447C877.876 303.147 878.205 300.848 880.508 301.317C882.811 301.786 884.644 303.664 884.644 303.664C884.644 303.664 885.114 305.165 885.255 307.371C885.349 309.577 885.584 312.533 886.054 314.504C886.524 316.475 887.088 319.244 886.43 320.84C885.772 322.435 884.08 324.688 880.508 325.626C876.936 326.518 872.236 326.283 868.1 326.753C863.964 327.222 860.909 326.987 859.264 327.457C857.665 327.926 856.255 329.709 855.08 331.211C853.905 332.713 852.495 335.059 850.991 337.546C849.487 340.034 845.492 344.539 842.155 344.961C838.818 345.384 835.998 346.228 833.742 344.117C831.486 341.958 832.473 339.283 827.49 340.691C822.555 342.099 819.406 341.676 818.325 341.676C817.244 341.676 813.39 343.084 812.074 343.6C810.805 344.117 809.724 342.709 807.233 342.333C804.742 341.958 801.875 341.019 802.298 339.705C802.721 338.438 805.212 338.203 804.037 336.279C802.862 334.355 798.209 330.272 798.209 330.272L793.038 325.11L791.816 323.702Z" fill="#0E3597" stroke="#02247B" stroke-miterlimit="10" stroke-linecap="round" stroke-linejoin="round"/>
<path d="M626.09 455.526C624.633 455.526 624.163 453.884 622.659 453.32C621.154 452.757 619.509 453.696 618.005 452.898C616.501 452.1 615.279 451.443 612.647 451.819C610.015 452.194 611.284 455.62 610.438 457.779C609.592 459.937 606.725 459.797 604.61 458.436C602.542 457.075 602.307 455.948 600.615 454.587C598.876 453.227 592.719 449.144 590.792 448.44C588.864 447.736 587.219 448.44 584.634 449.003C582.049 449.566 582.895 450.645 582.895 452.992C582.895 455.338 578.806 459.515 577.678 460.501C576.55 461.486 575.469 459.844 574.012 458.201C572.555 456.559 570.299 455.104 568.419 454.916C566.539 454.681 566.398 456.934 566.398 457.779C566.398 458.623 564.377 461.768 563.531 462.519C562.685 463.222 561.228 461.298 560.288 458.717C559.348 456.136 561.228 455.761 562.309 453.649C563.39 451.537 560.664 451.162 558.361 451.162C556.057 451.162 555.775 452.382 554.13 454.963C552.485 457.544 550.84 459.327 549.477 459.891C548.114 460.454 545.764 459.468 544.307 457.45C542.85 455.432 541.346 453.133 540.312 451.349C539.231 449.566 538.62 447.924 537.774 446.703C536.928 445.436 535.142 445.999 531.805 446.938C528.421 447.924 527.904 448.862 526.306 448.956C524.708 449.05 518.503 449.05 516.905 449.05C515.307 449.05 507.928 449.238 506.236 449.425C504.544 449.613 500.878 448.627 500.878 448.627C500.878 448.627 500.69 449.05 500.596 449.144C500.502 449.238 500.267 449.472 500.079 449.378C499.891 449.284 499.233 448.721 499.092 448.627C498.998 448.534 498.904 448.534 498.857 448.721C498.857 448.909 497.588 451.959 496.789 453.273C495.99 454.634 494.956 456.324 493.875 456.746C492.747 457.216 491.431 457.544 490.349 457.826C489.268 458.107 487.717 458.623 487.294 459.046C486.871 459.468 486.025 461.111 485.696 461.768C485.367 462.425 484.474 464.349 484.286 464.865C484.098 465.334 483.816 466.367 483.769 466.789C483.722 467.211 483.346 469.652 483.299 469.98C483.252 470.309 482.829 472.468 482.641 472.937C482.453 473.406 481.748 474.72 480.996 475.049C480.244 475.377 479.633 475.612 478.458 475.612C477.283 475.612 469.575 475.612 469.575 475.612C469.575 475.612 465.486 477.818 465.063 478.099C464.687 478.334 460.316 481.103 460.316 481.103L456.79 483.12L461.726 488.236C461.726 488.236 470.703 497.012 472.207 498.419C473.711 499.827 476.719 501.329 479.539 502.08C482.359 502.831 490.302 506.397 492.888 507.758C495.473 509.166 500.314 514.188 500.643 514.422C500.972 514.657 517.422 526.905 520.007 529.158C522.592 531.411 526.588 534.649 528.609 535.822C530.677 536.995 535.377 537.089 538.197 535.822C541.017 534.555 541.205 533.569 543.79 533.569C546.375 533.569 548.302 534.226 549.947 535.634C551.545 537.042 552.861 536.62 554.694 536.761C556.528 536.901 559.207 539.483 560.382 540.327C561.557 541.172 570.158 546.897 574.059 548.071C577.913 549.244 582.002 549.666 583.741 548.728C585.48 547.742 587.83 543.049 592.249 543.471C596.667 543.894 600.756 545.067 603.012 543.988C605.268 542.908 608.276 538.919 608.276 537.652C608.276 536.385 605.362 533.569 607.195 529.487C609.028 525.404 609.028 525.169 611.942 525.638C614.856 526.061 616.783 526.624 616.783 524.794C616.783 522.963 616.454 520.476 618.287 519.538C620.12 518.552 620.214 518.693 619.885 515.971C619.556 513.296 617.535 511.043 619.039 509.307C620.543 507.571 623.599 507.148 626.278 506.961C628.957 506.726 631.448 505.553 631.542 504.286C631.636 503.018 630.273 496.026 632.059 493.961C633.845 491.896 633.986 491.896 635.913 492.366C637.84 492.788 640.754 495.181 643.104 494.712C645.454 494.29 646.958 490.958 645.924 488.564C644.843 486.218 642.07 486.077 641.741 483.074C641.412 480.07 644.232 478.568 644.749 478.005C645.266 477.489 645.924 472.514 645.501 470.262C645.078 468.009 640.989 466.414 639.673 466.414C638.404 466.414 634.926 466.038 632.2 465.053C629.474 464.067 627.03 464.865 626.184 462.753C625.338 460.688 625.338 459.187 625.526 458.248C625.714 457.309 626.09 455.526 626.09 455.526Z" fill="#0E3597" stroke="#02247B" stroke-miterlimit="10" stroke-linecap="round" stroke-linejoin="round"/>
<path d="M583.553 548.493C585.292 547.507 587.642 542.815 592.06 543.237C596.479 543.659 600.568 544.832 602.824 543.753C605.08 542.674 608.088 538.685 608.088 537.418C608.088 536.151 605.174 533.335 607.007 529.252C608.84 525.169 608.84 524.934 611.754 525.404C614.668 525.826 616.595 526.389 616.595 524.559C616.595 522.729 616.266 520.242 618.099 519.303C619.932 518.364 620.026 518.458 619.697 515.736C619.368 513.014 617.347 510.809 618.851 509.072C620.355 507.336 623.41 506.914 626.089 506.726C628.769 506.491 631.26 505.318 631.354 504.051C631.448 502.784 630.085 495.791 631.871 493.727C633.704 491.662 633.798 491.662 635.725 492.131C637.652 492.553 640.566 494.947 642.916 494.477C645.266 494.008 646.77 490.723 645.736 488.33C644.655 485.983 641.882 485.842 641.553 482.839C641.553 482.839 641.553 480.868 642.399 479.929C643.245 478.991 644.561 477.911 644.561 477.911C644.561 477.911 647.381 480.117 648.744 480.399C650.107 480.68 650.718 480.023 653.679 479.695C656.64 479.319 659.367 480.117 660.213 480.07C661.059 479.976 663.597 478.193 664.631 477.958C665.665 477.724 668.344 479.038 668.579 479.601C668.814 480.164 668.861 481.619 669.848 483.308C670.835 485.045 672.48 485.795 672.856 486.64C673.232 487.485 673.702 488.752 672.151 490.207C670.553 491.662 667.968 493.304 667.827 494.29C667.686 495.275 667.404 508.462 667.921 510.058C668.438 511.654 671.587 513.906 672.01 515.643C672.433 517.379 672.01 519.209 674.172 522.072C676.334 524.981 679.859 527.75 682.35 529.487C684.841 531.223 687.285 532.49 687.097 533.992C686.862 535.494 684.841 538.732 684.512 540.421C684.183 542.158 684.747 545.02 684.277 546.663C683.854 548.258 684.794 551.496 680.188 552.341C675.582 553.186 674.595 552.998 674.031 553.937C673.514 554.922 672.621 562.196 671.775 564.027C670.929 565.857 669.096 569.517 668.109 570.456C667.122 571.441 658.097 582.376 658.097 584.769C658.097 587.163 658.755 587.773 658.943 589.509C659.178 591.245 658.849 594.249 658.52 596.173C658.191 598.097 659.696 601.101 658.943 603.588C658.191 606.075 656.452 609.079 654.337 607.436C652.175 605.841 649.167 605.277 647.569 605.183C645.971 605.09 645.501 606.169 643.903 606.357C642.305 606.544 641.412 606.263 640.472 604.855C639.485 603.447 637.135 603.259 636.9 603.682C636.665 604.104 635.49 607.765 633.234 608.422C630.978 609.079 630.132 607.999 629.38 608.422C628.628 608.844 627.782 610.674 626.042 610.487C624.303 610.299 622.799 606.826 621.953 605.653C621.107 604.48 618.616 604.057 617.441 603.4C616.266 602.743 616.689 599.974 616.031 598.801C615.373 597.628 612.929 595.469 610.109 595.469C607.289 595.469 608.37 595.892 605.268 596.877C602.166 597.863 599.111 598.707 597.607 598.473C596.103 598.238 596.009 601.148 593.611 601.148C591.214 601.148 587.36 598.332 586.42 597.909C585.433 597.487 583.318 598.238 582.754 597.909C582.237 597.581 581.015 594.812 582.754 593.92C584.493 593.076 584.822 590.495 584.258 589.744C583.741 588.993 581.908 586.928 581.861 586.083C581.814 585.239 582.66 566.655 582.66 566.655C582.66 566.655 587.83 562.9 588.911 560.225C589.992 557.55 590.18 554.078 588.488 552.482C586.796 550.839 583.553 548.493 583.553 548.493Z" fill="#0E3597" stroke="#02247B" stroke-miterlimit="10" stroke-linecap="round" stroke-linejoin="round"/>
<path d="M337.031 314.222C337.031 314.222 347.371 309.67 348.546 309.389C349.674 309.107 358.04 306.573 358.792 306.573C359.591 306.573 361.095 306.995 361.283 308.45C361.518 309.905 360.484 317.273 362.035 320.182C363.586 323.139 365.231 325.626 367.769 327.269C370.261 328.911 371.295 329.709 371.342 331.586C371.436 333.463 370.12 339.095 371.718 341.676C373.316 344.257 375.666 346.838 376.935 344.538C378.204 342.239 379.285 339.095 381.306 338.578C383.327 338.062 386.053 338.485 387.98 340.08C389.907 341.676 400.765 347.542 402.175 348.246C403.632 348.95 404.76 351.109 407.063 351.109C409.366 351.109 411.058 352.704 411.387 353.549C411.716 354.394 410.682 357.726 410.682 359.978C410.682 362.231 411.246 365.704 413.972 366.877C416.698 368.05 423.607 367.158 423.607 365.281C423.607 363.404 423.184 359.978 422.009 358.523C420.881 357.069 419.518 356.224 419.894 354.91C420.27 353.643 424.03 348.199 425.722 347.073C427.367 345.946 428.072 344.867 429.106 343.882C430.14 342.896 431.973 342.239 433.148 342.708C434.324 343.178 436.627 345.242 435.405 346.791C434.183 348.34 431.738 348.246 431.691 350.827C431.644 353.408 431.926 355.661 435.029 355.567C438.131 355.473 440.951 354.534 444.194 355.051C447.437 355.52 448.941 356.177 450.492 355.004C452.043 353.83 451.855 350.123 451.573 347.12C451.291 344.116 450.962 341.3 453.5 340.925C456.038 340.55 462.007 340.69 463.182 341.019C464.357 341.347 465.627 341.253 466.661 340.409C467.742 339.611 469.199 332.853 470.703 332.478C472.207 332.102 474.416 332.618 474.651 333.886C474.886 335.106 474.275 338.813 474.134 341.207C473.993 343.6 474.745 348.152 475.967 351.202C477.189 354.253 482.641 364.671 486.213 365.563C489.785 366.408 493.733 366.971 496.459 365.469C499.139 363.967 499.28 362.559 501.818 362.043C504.403 361.527 506.001 361.715 507.176 363.122C508.351 364.53 509.526 364.624 511.265 364.53C513.004 364.437 514.273 364.859 514.367 365.797C514.461 366.783 511.876 372.696 509.855 373.118C507.787 373.541 507.27 374.198 506.753 376.028C506.236 377.858 505.766 381.519 502.993 381.613C500.22 381.706 498.575 382.692 497.917 383.959C497.258 385.226 495.754 386.446 493.404 386.212C491.054 385.977 490.819 382.88 488.234 383.208C485.649 383.537 484.897 382.035 484.662 385.038C484.427 388.042 485.414 388.699 485.085 390.858C484.756 393.016 482.5 394.941 481.748 396.02C480.996 397.099 480.573 397.756 481.09 400.337C481.607 402.918 482.171 404.514 480.855 406.157C479.539 407.799 480.197 408.409 478.693 410.474C477.189 412.539 475.262 413.055 473.852 413.571C472.442 414.088 470.75 412.727 469.669 414.557C468.588 416.387 468.259 418.546 470.703 421.737C473.147 424.928 475.262 430.419 475.497 430.888C475.732 431.311 476.249 431.311 477.988 434.455C479.727 437.552 481.983 437.552 484.756 436.191C487.576 434.783 488.516 434.267 491.665 435.112C494.767 435.957 497.917 438.35 494.344 439.711C490.772 441.119 487.576 441.964 490.349 444.216C493.169 446.469 496.271 446.797 497.54 447.314C497.54 447.314 498.34 447.877 498.622 448.252C498.951 448.628 498.48 449.754 498.01 450.458C497.54 451.162 496.036 455.667 493.592 456.793C491.148 457.92 487.294 457.92 486.401 459.938C485.555 461.955 483.816 464.677 483.534 466.977C483.252 469.276 482.829 471.858 482.406 472.984C481.983 474.11 481.137 475.565 478.223 475.565C475.356 475.565 469.34 475.565 469.34 475.565C469.34 475.565 465.814 477.348 464.122 478.521C462.383 479.648 455.004 484.388 452.09 485.092C449.129 485.796 444.852 484.951 442.784 483.637C440.716 482.37 437.849 478.334 432.256 476.175C426.662 474.016 422.338 470.59 419.753 466.93C417.168 463.269 413.079 456.418 411.152 454.024C409.225 451.678 400.811 445.859 396.957 443.7C393.103 441.541 375.854 431.874 370.684 425.445C365.513 419.015 365.513 419.015 365.513 419.015L351.742 408.925C351.742 408.925 350.003 405.922 350.003 403.106C350.003 400.29 351.225 398.789 350.426 397.287C349.627 395.785 347.371 394.847 347.183 394.33C347.042 393.814 347.418 388.98 347.324 387.009C347.277 385.085 347.089 378.609 344.457 377.107C341.825 375.606 338.817 375.324 337.548 374.057C336.326 372.79 333.552 367.44 332.048 363.404C330.544 359.368 327.536 353.502 327.301 351.437C327.066 349.325 326.69 345.618 326.69 345.618L327.066 343.506C327.066 343.506 330.638 341.207 331.343 340.831C332.095 340.503 338.018 338.062 338.629 337.828C339.24 337.593 345.021 335.34 345.397 335.2C345.773 335.012 347.136 334.167 347.841 333.322C348.499 332.478 349.016 331.68 349.016 331.445C349.016 331.211 348.734 330.507 348.029 329.803C347.324 329.099 345.397 327.55 344.974 327.175C344.551 326.799 343.658 325.72 343.235 325.11C342.812 324.5 340.039 319.619 340.039 319.619L337.924 315.912L337.031 314.222Z" fill="#0E3597" stroke="#02247B" stroke-miterlimit="10" stroke-linecap="round" stroke-linejoin="round"/>
<path d="M293.272 317.226C292.99 319.103 290.546 318.962 289.982 318.212C289.418 317.508 289.559 310.046 284.812 309.06C280.065 308.075 278.044 307.042 278.044 307.042C278.044 307.042 275.459 302.866 274.19 302.021C272.921 301.176 271.041 301.458 270.195 300.895C269.349 300.331 268.174 295.873 266.623 295.451C265.071 295.028 261.593 292.87 260.606 291.462C259.619 290.007 253.274 283.296 251.864 281.701C250.407 280.105 247.54 277.102 247.54 275.834C247.54 274.567 244.532 272.549 244.532 270.672C244.532 268.795 245.519 265.932 245.378 265.088C245.237 264.243 239.926 263.07 238.939 262.929C237.952 262.788 235.508 260.348 235.414 257.767C235.32 255.186 234.991 253.261 230.478 248.756C225.966 244.251 217.271 237.634 217.271 237.634C217.271 237.634 215.579 238.666 216.519 240.403C217.412 242.139 221.266 244.908 222.112 245.659C222.958 246.41 225.496 247.583 224.415 248.756C223.334 249.929 220.749 249.413 221.219 251.76C221.689 254.106 222.347 257.297 221.548 258.142C220.749 258.987 217.083 259.785 216.848 261.709C216.613 263.586 219.95 266.167 221.924 266.167C223.851 266.167 226.342 266.824 227 267.012C227.658 267.199 232.17 270.86 233.439 272.69C234.709 274.52 237.012 276.116 236.26 278.134C235.508 280.105 235.508 281.184 233.439 280.762C231.371 280.34 229.679 277.195 228.598 276.914C227.517 276.585 225.261 276.257 225.167 278.134C225.073 280.011 224.838 282.686 225.825 284.094C226.812 285.502 228.739 287.661 227.987 289.772C227.235 291.931 224.556 293.761 223.381 294.512C222.206 295.263 222.958 302.772 223.381 304.508C223.804 306.245 225.308 307.418 226.953 307.746C228.551 308.075 230.29 307.23 232.311 308.591C234.38 309.999 237.388 313.847 238.234 314.739C239.08 315.583 243.498 318.775 245.754 318.681C248.01 318.587 263.097 317.742 267.046 317.508C271.041 317.273 274.989 316.851 277.057 317.742C279.125 318.587 281.052 320.84 282.556 321.919C284.06 322.998 285.564 324.172 287.068 324.172C288.572 324.172 290.734 323.937 291.58 323.327C292.426 322.67 292.99 321.356 293.037 320.511C293.084 319.713 293.272 317.226 293.272 317.226Z" fill="#0E3597" stroke="#02247B" stroke-miterlimit="10" stroke-linecap="round" stroke-linejoin="round"/>
<path d="M851.085 337.546C849.581 340.033 845.586 344.539 842.249 344.961C838.912 345.383 836.092 346.228 833.836 344.116C831.58 341.957 832.567 339.283 827.585 340.69C822.649 342.098 819.5 341.676 818.419 341.676C817.338 341.676 813.484 343.084 812.168 343.6C812.168 343.6 810.288 345.946 808.361 346.603C806.434 347.26 803.05 348.199 802.768 348.762C802.486 349.325 801.499 350.827 801.123 352.986C800.747 355.145 799.995 356.787 798.773 358.148C797.551 359.509 792.757 362.653 791.112 363.076C789.467 363.498 788.809 365.094 788.668 365.938C788.527 366.783 792.475 369.74 793.133 370.725C793.791 371.711 795.201 373.212 796.141 372.508C797.081 371.804 797.927 371.664 799.102 372.368C800.23 373.072 801.546 376.028 802.345 378.515C803.144 381.003 806.434 382.223 809.865 381.237C813.296 380.252 824.859 376.31 827.585 375.793C830.311 375.277 833.977 375.7 836.186 374.339C838.395 372.978 839.147 371.241 841.356 371.101C843.565 370.96 848.265 374.245 851.414 375.84C854.564 377.436 857.948 378.468 858.512 376.638C859.076 374.761 860.674 372.274 862.225 374.057C863.823 375.84 862.93 378.375 864.528 379.407C866.126 380.486 871.108 375.559 873.505 373.4C875.855 371.241 878.44 371.804 879.615 368.66C880.743 365.516 883.845 363.357 884.55 363.076C885.256 362.794 882.811 358.007 885.819 357.491C888.828 356.975 891.789 357.35 893.998 356.365C896.207 355.379 896.019 351.86 893.998 350.405C891.977 348.95 886.383 345.946 885.396 345.477C884.409 345.008 882.576 345.102 880.931 343.882C879.286 342.661 877.829 341.066 874.633 340.643C871.437 340.221 868.758 340.409 866.361 339.986C863.964 339.564 861.849 338.766 860.204 338.532C858.559 338.297 852.59 338.156 852.59 338.156L851.085 337.546Z" fill="#0E3597" stroke="#02247B" stroke-miterlimit="10" stroke-linecap="round" stroke-linejoin="round"/>
<path d="M826.127 384.475C826.127 384.475 827.867 382.833 828.854 383.49C829.841 384.147 832.097 387.197 833.789 387.901C835.528 388.605 835.998 388.605 837.878 388.464C839.758 388.323 842.108 390.388 841.168 391.468C840.228 392.547 838.818 393.767 839.1 394.987C839.382 396.207 842.907 401.088 840.886 402.308C838.865 403.528 836.703 404.092 835.528 403.951C834.306 403.81 830.499 403.153 830.311 403.247C830.076 403.341 829.652 399.539 829.935 398.882C830.217 398.225 829.277 397.897 827.631 396.818C825.986 395.738 824.764 394.189 825.422 393.298C826.08 392.453 826.08 391.655 825.234 390.06C824.388 388.464 824.059 387.76 824.764 386.822C825.469 385.883 826.127 384.475 826.127 384.475Z" fill="#0E3597"/>
<path d="M868.053 391.608C868.053 391.608 868.194 394.048 866.69 394.565C865.186 395.081 864.481 395.785 865.844 397.005C867.207 398.225 870.92 400.383 871.672 398.647C872.377 396.911 873.176 391.561 872.189 391.28C871.155 390.998 868.053 391.608 868.053 391.608Z" fill="#0E3597"/>
<path d="M851.085 337.546L852.636 338.25C852.636 338.25 858.605 338.391 860.251 338.625C861.896 338.86 864.058 339.611 866.408 340.08C868.758 340.549 871.437 340.315 874.68 340.737C877.923 341.159 879.333 342.755 880.978 343.975C882.623 345.195 884.409 345.055 885.443 345.571C886.477 346.087 892.024 349.09 894.045 350.498C896.066 351.953 896.254 355.426 894.045 356.458C894.045 356.458 897.382 359.649 898.933 360.635C900.484 361.621 904.479 360.119 904.526 357.303C904.573 354.487 902.599 352.892 900.86 350.874C899.121 348.809 895.69 345.711 897.664 344.538C899.638 343.365 902.458 342.333 903.492 343.318C904.526 344.304 910.918 350.451 912.751 349.278C914.584 348.105 912.845 346.979 915.477 345.618C918.109 344.257 918.955 345.336 919.989 345.289C921.023 345.242 922.152 339.47 922.152 338.203C922.152 336.936 924.126 333.134 926.946 332.994C929.766 332.853 931.27 333.745 932.727 332.102C934.184 330.459 937.756 327.503 939.636 326.283C941.516 325.063 940.012 322.622 938.132 322.575C936.252 322.482 923.42 322.998 921.352 323.092C919.284 323.185 917.827 323.232 915.9 321.871C913.973 320.511 914.255 319.243 910.871 319.243C907.487 319.243 906.547 319.76 904.996 318.821C903.398 317.882 903.116 316.944 902.505 315.442C901.847 313.94 897.1 310.561 895.831 310.702C894.609 310.843 894.327 312.908 894.092 313.659C893.857 314.363 893.81 315.583 892.494 316.146C891.225 316.709 886.712 316.897 886.712 316.897C886.712 316.897 886.994 318.023 886.9 319.009C886.853 320.041 886.759 320.98 886.148 321.871C885.537 322.763 884.456 324.124 883.14 324.734C881.824 325.344 879.991 326.048 877.735 326.236C875.479 326.424 871.296 326.611 870.967 326.611C870.638 326.611 866.972 326.987 866.408 327.034C865.844 327.081 862.742 327.221 862.272 327.221C861.802 327.221 860.204 327.221 859.405 327.55C858.606 327.878 857.947 328.207 857.195 329.005C856.443 329.802 854.657 332.055 854.657 332.055C854.657 332.055 852.918 334.683 852.683 335.059C852.448 335.34 851.085 337.546 851.085 337.546Z" fill="#0E3597" stroke="#02247B" stroke-miterlimit="10" stroke-linecap="round" stroke-linejoin="round"/>
</svg>
