<svg width="91" height="52" viewBox="0 0 91 52" fill="none" xmlns="http://www.w3.org/2000/svg">
<path d="M0.5 27.3478L2.05107 28.0518C2.05107 28.0518 8.02023 28.1925 9.66528 28.4272C11.3103 28.6618 13.4724 29.4127 15.8225 29.882C18.1726 30.3513 20.8517 30.1166 24.0948 30.539C27.3379 30.9614 28.7479 32.557 30.393 33.7771C32.038 34.9973 33.8241 34.8565 34.8581 35.3727C35.8921 35.8889 41.4383 38.8924 43.4594 40.3003C45.4805 41.7551 45.6685 45.2278 43.4594 46.2603C43.4594 46.2603 46.7964 49.4515 48.3475 50.437C49.8985 51.4225 53.8937 49.9208 53.9407 47.105C53.9877 44.2893 52.0137 42.6937 50.2746 40.6757C48.5355 38.6108 45.1044 35.5135 47.0785 34.3402C49.0525 33.167 51.8726 32.1346 52.9066 33.1201C53.9406 34.1056 60.3329 40.2534 62.166 39.0801C63.999 37.9069 62.2599 36.7806 64.892 35.4196C67.5241 34.0587 68.3701 35.1381 69.4042 35.0912C70.4382 35.0442 71.5663 29.2719 71.5663 28.0048C71.5663 26.7377 73.5403 22.9364 76.3604 22.7957C79.1805 22.6549 80.6846 23.5465 82.1416 21.904C83.5986 20.2615 87.1707 17.305 89.0508 16.0848C90.9308 14.8647 89.4268 12.4243 87.5468 12.3774C85.6667 12.2835 72.8352 12.7997 70.7672 12.8936C68.6991 12.9875 67.2421 13.0344 65.3151 11.6735C63.388 10.3125 63.67 9.04543 60.2859 9.04543C56.9018 9.04543 55.9618 9.56164 54.4108 8.62305C52.8127 7.68447 52.5307 6.74585 51.9197 5.24411C51.2616 3.74237 46.5145 0.36348 45.2455 0.504268C44.0234 0.645056 43.7413 2.70997 43.5063 3.46083C43.2713 4.16477 43.2244 5.3849 41.9083 5.94805C40.6393 6.5112 36.1271 6.69896 36.1271 6.69896C36.1271 6.69896 36.4092 7.82526 36.3152 8.81078C36.2682 9.84322 36.1741 10.7818 35.5631 11.6735C34.9521 12.5651 33.8711 13.926 32.5551 14.5361C31.239 15.1462 29.406 15.8501 27.1499 16.0378C24.8938 16.2256 20.7106 16.4133 20.3816 16.4133C20.0526 16.4133 16.3865 16.7887 15.8225 16.8357C15.2585 16.8826 12.1564 17.0234 11.6864 17.0234C11.2164 17.0234 9.61837 17.0234 8.81935 17.3519C8.02032 17.6804 7.36221 18.0089 6.61019 18.8067C5.85816 19.6045 4.07216 21.8571 4.07216 21.8571C4.07216 21.8571 2.33313 24.4851 2.09812 24.8606C1.86311 25.1421 0.5 27.3478 0.5 27.3478Z" fill="#0E3597" stroke="#02247B" stroke-miterlimit="10" stroke-linecap="round" stroke-linejoin="round"/>
</svg>
